<?xml version="1.0" encoding="UTF-8"?>
<svg id="Layer_2" data-name="Layer 2" xmlns="http://www.w3.org/2000/svg" viewBox="0 0 312.1 120.03">
  <defs>
    <style>
      .cls-1 {
        fill: #253862;
      }
    </style>
  </defs>
  <g id="Layer_1-2" data-name="Layer 1">
    <g>
      <path class="cls-1" d="M11.97,74.54c0-2.09,2.85-4.37,4.28-3.33,1.05.67,4.85,17.59,29.57,17.59,8.18,0,17.3-3.04,17.3-5.42,0-1.33-10.36-10.36-18.25-18.73-13.41-14.26-19.68-23.58-19.68-32.42C25.19,15.69,48.39,0,73.11,0s39.46,10.46,39.46,22.06c0,15.4-15.69,29.19-33.28,29.19-6.18,0-11.88-2.95-11.88-6.08,0-.86,1.14-2.09,1.9-2.09,1.33,0,1.52.48,3.71.48,14.83,0,32.52-13.12,32.52-23.58,0-4.28-11.03-7.23-27.95-7.23-19.11,0-40.12,10.84-40.12,20.63,0,4.66,9.41,15.69,13.79,21.01,10.27,12.36,21.58,23.39,21.58,27,0,9.79-12.55,18.45-26.24,18.45-17.97,0-34.61-11.41-34.61-25.29Z"/>
      <path class="cls-1" d="M138.72,85.47c0-6.37,14.17-20.82,14.17-23.67,0-1.52-1.14-2.38-3.04-2.38-5.7,0-23.77,17.49-35.94,34.7l-.67.86c-5.32,0-10.36-2.76-9.03-4.94,5.32-8.37,17.78-25.96,17.78-28.81,0-2-.86-2.38-3.04-2.38-6.37,0-21.49,15.59-34.42,35.37-.1.29-.48.38-.95.38-2.85,0-10.74-3.9-9.6-5.51,11.03-16.45,19.68-31.66,27.29-43.74.19-.38.67-.48,1.24-.48,2.66,0,8.08,3.61,7.42,5.7-.57,1.71-3.52,6.85-7.42,13.31,9.79-11.31,17.11-19.59,23.86-19.59,5.9,0,9.79,3.61,9.79,9.13,0,3.04-2,7.13-5.42,12.84,11.69-12.46,20.54-21.3,30.04-21.3,5.32,0,9.98,3.9,9.98,8.46,0,7.23-16.73,21.3-16.73,27.19,0,1.33.29,1.71,1.14,1.71,4.37,0,11.98-6.27,21.39-17.68.48-.57,1.14-.76,2-.76,2.09,0,4.75,1.81,3.52,3.42-12.84,17.4-25.67,27.67-34.42,27.67-6.08,0-8.94-3.04-8.94-9.51Z"/>
      <path class="cls-1" d="M279.63,63.89c-.86,0-1.52.19-2,.76-9.41,11.41-17.02,17.68-21.39,17.68-.86,0-1.14-.38-1.14-1.71,0-4.77,3.74-8.39,5.58-12.44,4.14-9.12-8.54-13.43-13.73-18.03.48-1.71.76-3.14.76-4.37,0-6.08-2.28-9.89-5.8-9.89-2.95,0-4.75,2.95-4.75,7.8,0,4.09.86,7.23,2.66,9.7-2.52,5.26-5.9,9.72-9.68,14.12-3.44,4.01-6.96,8.02-11.1,11.32-1.9,1.52-4.36,3.44-6.92,3.51-1.33,0-1.71-.57-1.71-2.28,0-3.23,3.14-9.03,9.79-18.06.38-.57-7.8-4.28-8.08-3.8-3.04,4.09-16.73,24.53-22.82,24.53-2.66,0-4.75-1.81-4.75-4.85,0-9.03,13.98-23.29,22.91-23.29,3.8,0,5.32.67,7.51,3.23.09.1.29.1.38,0,2.66-1.81,6.18-3.8,6.18-4.94,0-4.09-6.94-7.89-14.45-7.89-17.21,0-36.7,20.16-36.7,38.03,0,6.85,5.04,12.36,11.31,12.36,4.18,0,9.22-3.04,13.31-7.51.48,5.04,3.52,8.08,8.27,8.08,7.21,0,13.84-5.55,18.81-10.18,4.49-4.18,8.55-8.79,12.35-13.6,3.32-4.2,6.43-8.38,8.82-13.18.06-.11.54-1.2.58-1.19.05-.1.11-.21.16-.31,3.9,2.95,6.66,4.37,6.66,6.85,0,.6-.38,1.46-1.04,2.53-5.92,7.31-11.63,12.57-11.63,18.63s3.52,9.51,9.79,9.51c8.75,0,22.53-10.27,35.37-27.67,1.24-1.62-1.43-3.42-3.52-3.42Z"/>
      <path class="cls-1" d="M268.7,86.24c0-6.85,8.56-21.96,18.25-37.46l-3.8.09c-1.52,0-2.85-.48-2.66-1.62.19-1.14,1.14-4.66,3.33-4.85,1.14-.09,3.99-.19,7.32-.09,4.37-7.04,8.84-13.79,12.55-19.68.19-.29.48-.38.95-.38,2.47,0,8.46,4.37,7.32,6.18-2.66,3.9-5.99,8.84-9.41,14.17,2.09.1,3.99.19,5.42.29,3.71.29.48,5.42-3.23,5.61l-5.99.1c-8.27,13.22-16.07,27-16.07,31.28,0,1.71.95,2.76,2.38,2.76,4.28,0,9.41-4.47,20.54-17.97.48-.57,1.14-.76,2-.76,2.09,0,4.75,1.81,3.52,3.42-13.79,18.64-24.81,27.67-33.66,27.67-6.08,0-8.75-3.23-8.75-8.75Z"/>
      <g>
        <path class="cls-1" d="M66.55,119.22c-.88-.51-1.56-1.2-2.07-2.08-.5-.87-.76-1.83-.76-2.88s.25-2,.76-2.88c.5-.87,1.19-1.56,2.06-2.06.87-.5,1.84-.76,2.91-.76.65,0,1.27.1,1.86.3.59.2,1.13.48,1.61.84.09.07.13.15.13.23,0,.07-.03.14-.08.2l-1.27,1.66c-.07.09-.15.13-.24.13-.07,0-.14-.02-.2-.07-.27-.18-.56-.33-.87-.43-.31-.11-.63-.16-.95-.16-.51,0-.98.13-1.42.4-.44.26-.79.63-1.05,1.09-.26.46-.4.97-.4,1.52s.13,1.06.4,1.52c.26.46.62.82,1.06,1.09.44.27.91.4,1.41.4.36,0,.68-.05.95-.14.27-.09.57-.25.88-.47.07-.05.14-.07.21-.07.09,0,.17.04.24.13l1.25,1.67c.06.08.09.16.09.22,0,.07-.04.14-.12.2-.49.37-1.03.66-1.62.86-.6.2-1.22.3-1.87.3-1.06,0-2.03-.26-2.9-.77Z"/>
        <path class="cls-1" d="M83.13,119.79h-6.75c-.21,0-.31-.1-.31-.31v-10.38c0-.21.1-.31.31-.31h2.19c.21,0,.31.1.31.31v8h4.25c.21,0,.31.1.31.31v2.07c0,.21-.1.31-.31.31Z"/>
        <path class="cls-1" d="M94.02,119.79h-7.49c-.21,0-.31-.1-.31-.31v-10.38c0-.21.1-.31.31-.31h7.37c.21,0,.31.1.31.31v1.92c0,.21-.1.31-.31.31h-4.87v1.72h3.74c.21,0,.31.1.31.31v1.76c0,.21-.1.31-.31.31h-3.74v1.81h4.98c.21,0,.31.1.31.31v1.92c0,.21-.1.31-.31.31Z"/>
        <path class="cls-1" d="M107.25,119.57c0,.07-.02.13-.07.17-.05.04-.11.06-.2.06h-2.26c-.18,0-.3-.09-.35-.26l-.5-1.47h-3.95l-.5,1.47c-.05.17-.17.26-.35.26h-2.25c-.08,0-.15-.02-.2-.06-.05-.04-.07-.1-.07-.17,0-.04,0-.09.02-.13l4.01-10.42c.06-.17.18-.25.36-.25h1.94c.18,0,.3.08.36.25l3.99,10.42s.02.09.02.13ZM103.08,115.72l-1.05-3.09-.14-.5-.12.5-1.05,3.09h2.36Z"/>
        <path class="cls-1" d="M112.44,119.79h-2.12c-.21,0-.31-.1-.31-.31v-10.38c0-.21.1-.31.31-.31h2.42c.17,0,.29.07.38.2l3.75,6.02v-5.91c0-.21.1-.31.31-.31h2.12c.21,0,.31.1.31.31v10.38c0,.21-.1.31-.31.31h-2.15c-.16,0-.29-.07-.38-.2l-4.02-6.36v6.25c0,.21-.1.31-.31.31Z"/>
        <path class="cls-1" d="M125.77,119.79h-2.19c-.21,0-.31-.1-.31-.31v-10.38c0-.21.1-.31.31-.31h2.19c.21,0,.31.1.31.31v10.38c0,.21-.1.31-.31.31Z"/>
        <path class="cls-1" d="M132.17,119.79h-2.12c-.21,0-.31-.1-.31-.31v-10.38c0-.21.1-.31.31-.31h2.42c.17,0,.29.07.38.2l3.75,6.02v-5.91c0-.21.1-.31.31-.31h2.12c.21,0,.31.1.31.31v10.38c0,.21-.1.31-.31.31h-2.15c-.16,0-.29-.07-.38-.2l-4.02-6.36v6.25c0,.21-.1.31-.31.31Z"/>
        <path class="cls-1" d="M149.62,114.7h2.04c.21,0,.31.1.31.31v3.53c0,.16-.06.29-.19.38-.49.34-1.05.6-1.67.79-.62.19-1.27.28-1.93.28-1.06,0-2.03-.26-2.9-.77-.88-.51-1.56-1.2-2.07-2.08-.5-.87-.76-1.83-.76-2.88s.25-2,.76-2.88c.5-.87,1.19-1.56,2.06-2.06.87-.5,1.84-.76,2.91-.76.65,0,1.27.1,1.86.3.59.2,1.13.48,1.61.84.09.07.13.15.13.23,0,.07-.03.14-.08.2l-1.27,1.66c-.07.09-.15.13-.24.13-.07,0-.14-.02-.2-.07-.27-.18-.56-.33-.87-.43-.31-.11-.63-.16-.95-.16-.51,0-.98.13-1.42.4-.44.26-.79.63-1.05,1.09-.26.46-.4.97-.4,1.52s.13,1.08.4,1.55c.26.47.62.85,1.06,1.12.44.28.91.42,1.41.42.42,0,.79-.06,1.13-.16v-2.19c0-.21.1-.31.31-.31Z"/>
        <path class="cls-1" d="M161.94,119.49c-.74-.32-1.39-.8-1.95-1.42-.06-.07-.09-.14-.09-.21,0-.08.04-.16.12-.24l1.39-1.32c.07-.07.14-.1.21-.1.08,0,.16.04.23.12.33.34.71.6,1.12.78.41.18.84.26,1.29.26s.78-.08,1-.23c.22-.15.33-.36.33-.62,0-.18-.05-.33-.15-.46-.1-.13-.28-.26-.56-.39-.27-.13-.68-.27-1.2-.43-.87-.26-1.65-.66-2.33-1.23-.68-.56-1.02-1.32-1.02-2.28,0-.57.14-1.09.43-1.57.29-.48.73-.87,1.32-1.16s1.32-.43,2.18-.43c.73,0,1.42.13,2.08.39.66.26,1.25.61,1.77,1.06.08.07.12.14.12.23,0,.07-.03.15-.09.22l-1.27,1.43c-.07.08-.14.13-.23.13-.07,0-.14-.03-.21-.09-.29-.23-.62-.42-1-.58-.37-.16-.74-.24-1.1-.24-.74,0-1.1.22-1.1.65,0,.18.06.34.18.46.12.13.28.23.48.32s.51.21.93.35c.06.02.14.04.26.09.74.26,1.36.54,1.84.84.49.3.86.66,1.13,1.09.27.43.4.95.4,1.56,0,.7-.17,1.32-.51,1.85-.34.53-.82.94-1.44,1.23-.62.29-1.34.44-2.16.44s-1.63-.16-2.38-.49Z"/>
        <path class="cls-1" d="M173.76,119.22c-.88-.51-1.56-1.2-2.07-2.08-.5-.87-.76-1.83-.76-2.88s.25-2,.76-2.88c.5-.87,1.19-1.56,2.06-2.06.87-.5,1.84-.76,2.91-.76s2.03.25,2.9.76c.87.51,1.56,1.2,2.06,2.06.5.87.76,1.83.76,2.87s-.25,2-.76,2.87c-.5.88-1.19,1.57-2.07,2.08-.88.51-1.84.77-2.9.77s-2.03-.26-2.9-.77ZM178.08,116.89c.44-.26.79-.63,1.05-1.09s.39-.97.39-1.52-.13-1.06-.4-1.52c-.26-.46-.62-.82-1.05-1.09s-.91-.4-1.41-.4-.98.13-1.42.4c-.44.26-.79.63-1.05,1.09-.26.46-.4.97-.4,1.52s.13,1.06.4,1.52c.26.46.62.82,1.06,1.09.44.27.91.4,1.41.4s.98-.13,1.42-.4Z"/>
        <path class="cls-1" d="M192.56,119.79h-6.75c-.21,0-.31-.1-.31-.31v-10.38c0-.21.1-.31.31-.31h2.19c.21,0,.31.1.31.31v8h4.25c.21,0,.31.1.31.31v2.07c0,.21-.1.31-.31.31Z"/>
        <path class="cls-1" d="M197.32,119.44c-.71-.39-1.26-.93-1.63-1.62-.37-.69-.56-1.47-.56-2.35v-6.38c0-.21.1-.31.31-.31h2.19c.21,0,.31.1.31.31v5.98c0,.47.08.88.23,1.23.15.35.38.62.67.81.29.19.63.29,1.01.29s.73-.1,1.03-.29c.29-.19.52-.46.67-.81s.23-.76.23-1.23v-5.98c0-.21.1-.31.31-.31h2.19c.21,0,.31.1.31.31v6.38c0,.88-.19,1.66-.56,2.35-.38.69-.92,1.23-1.64,1.62s-1.57.58-2.55.58-1.83-.19-2.54-.58Z"/>
        <path class="cls-1" d="M212.69,119.79h-2.19c-.21,0-.31-.1-.31-.31v-8.07h-2.64c-.21,0-.31-.1-.31-.31v-2c0-.21.1-.31.31-.31h8.11c.21,0,.31.1.31.31v2c0,.21-.1.31-.31.31h-2.65v8.07c0,.21-.1.31-.31.31Z"/>
        <path class="cls-1" d="M221.3,119.79h-2.19c-.21,0-.31-.1-.31-.31v-10.38c0-.21.1-.31.31-.31h2.19c.21,0,.31.1.31.31v10.38c0,.21-.1.31-.31.31Z"/>
        <path class="cls-1" d="M227.54,119.22c-.88-.51-1.56-1.2-2.07-2.08-.5-.87-.76-1.83-.76-2.88s.25-2,.76-2.88c.5-.87,1.19-1.56,2.06-2.06.87-.5,1.84-.76,2.91-.76s2.03.25,2.9.76c.87.51,1.56,1.2,2.06,2.06.5.87.76,1.83.76,2.87s-.25,2-.76,2.87c-.5.88-1.19,1.57-2.07,2.08-.88.51-1.84.77-2.9.77s-2.03-.26-2.9-.77ZM231.86,116.89c.44-.26.79-.63,1.05-1.09s.39-.97.39-1.52-.13-1.06-.4-1.52c-.26-.46-.62-.82-1.05-1.09s-.91-.4-1.41-.4-.98.13-1.42.4c-.44.26-.79.63-1.05,1.09-.26.46-.4.97-.4,1.52s.13,1.06.4,1.52c.26.46.62.82,1.06,1.09.44.27.91.4,1.41.4s.98-.13,1.42-.4Z"/>
        <path class="cls-1" d="M241.7,119.79h-2.12c-.21,0-.31-.1-.31-.31v-10.38c0-.21.1-.31.31-.31h2.42c.17,0,.29.07.38.2l3.75,6.02v-5.91c0-.21.1-.31.31-.31h2.12c.21,0,.31.1.31.31v10.38c0,.21-.1.31-.31.31h-2.15c-.16,0-.29-.07-.38-.2l-4.02-6.36v6.25c0,.21-.1.31-.31.31Z"/>
        <path class="cls-1" d="M253.86,119.49c-.74-.32-1.39-.8-1.95-1.42-.06-.07-.09-.14-.09-.21,0-.08.04-.16.12-.24l1.39-1.32c.07-.07.14-.1.21-.1.08,0,.16.04.23.12.33.34.71.6,1.12.78.41.18.84.26,1.29.26s.78-.08,1-.23c.22-.15.33-.36.33-.62,0-.18-.05-.33-.15-.46-.1-.13-.28-.26-.56-.39-.27-.13-.68-.27-1.2-.43-.87-.26-1.65-.66-2.33-1.23-.68-.56-1.02-1.32-1.02-2.28,0-.57.14-1.09.43-1.57.29-.48.73-.87,1.32-1.16s1.32-.43,2.18-.43c.73,0,1.42.13,2.08.39.66.26,1.25.61,1.77,1.06.08.07.12.14.12.23,0,.07-.03.15-.09.22l-1.27,1.43c-.07.08-.14.13-.23.13-.07,0-.14-.03-.21-.09-.29-.23-.62-.42-1-.58-.37-.16-.74-.24-1.1-.24-.74,0-1.1.22-1.1.65,0,.18.06.34.18.46.12.13.28.23.48.32s.51.21.93.35c.06.02.14.04.26.09.74.26,1.36.54,1.84.84.49.3.86.66,1.13,1.09.27.43.4.95.4,1.56,0,.7-.17,1.32-.51,1.85-.34.53-.82.94-1.44,1.23-.62.29-1.34.44-2.16.44s-1.63-.16-2.38-.49Z"/>
      </g>
      <path class="cls-1" d="M7.35,40.63l-1.03-3.04c-.94-2.77-3.79-3.49-6.33-4.29,4.91-1.08,5.96-2.26,7.3-7.07,1.4,4.96,2.2,5.78,7.29,7.08-5.05,1.7-5.73,2.05-7.24,7.31Z"/>
      <path class="cls-1" d="M277.92,31.93l-1.29-3.81c-1.17-3.47-4.75-4.38-7.93-5.38,6.16-1.35,7.48-2.84,9.15-8.86,1.76,6.22,2.76,7.25,9.14,8.88-6.33,2.12-7.18,2.57-9.08,9.16Z"/>
      <path class="cls-1" d="M19.54,61.86l-1.24,3.64c-2.55-7.64-3.04-8.3-11.01-10.83,7.28-1.95,8.75-3.08,10.96-10.37,2.22,7.22,3.62,8.32,10.93,10.36l-3.81,1.31c-2.82.97-4.83,2.94-5.83,5.88Z"/>
      <path class="cls-1" d="M302.9,108.99c-1.02-4.18-2.07-6.91-6.31-8.28l-2.93-.95c6.42-1.55,7.67-3.14,9.25-9.08,1.44,5.99,3.26,7.57,9.19,9.1-5.96,1.74-7.52,2.77-9.21,9.21Z"/>
    </g>
  </g>
</svg>